<svg width="40" height="40" viewBox="0 0 40 40" fill="none" xmlns="http://www.w3.org/2000/svg">
<path d="M20 0C8.97203 0 0 8.97203 0 20C0 31.028 8.97203 40 20 40C31.028 40 40 31.028 40 20C40 8.97203 31.0281 0 20 0ZM20 37.4422C10.3824 37.4422 2.55784 29.6177 2.55784 20C2.55784 10.3823 10.3824 2.55784 20 2.55784C29.6176 2.55784 37.4422 10.3824 37.4422 20C37.4422 29.6176 29.6176 37.4422 20 37.4422Z" fill="white"/>
<path d="M23.2157 25.829L20.825 27.2286V17.0269C20.825 16.5803 20.592 16.1661 20.2104 15.9342C19.8287 15.7022 19.354 15.6859 18.9574 15.8917L15.5496 17.6589C14.9225 17.984 14.6778 18.7559 15.003 19.3828C15.3282 20.0099 16.1 20.2548 16.7271 19.9295L18.2672 19.1309V29.4594C18.2672 29.9177 18.5124 30.3409 18.9099 30.569C19.107 30.6819 19.3265 30.7383 19.5461 30.7383C19.7695 30.7383 19.9927 30.6799 20.1921 30.5633L24.5079 28.037C25.1175 27.68 25.3224 26.8968 24.9656 26.2871C24.6088 25.6775 23.8252 25.4723 23.2157 25.829Z" fill="white"/>
<path d="M19.5461 14.0746C20.522 14.0746 21.3131 13.2835 21.3131 12.3076C21.3131 11.3317 20.522 10.5405 19.5461 10.5405C18.5702 10.5405 17.7791 11.3317 17.7791 12.3076C17.7791 13.2835 18.5702 14.0746 19.5461 14.0746Z" fill="white"/>
</svg>
