<svg width="40" height="40" viewBox="0 0 40 40" fill="none" xmlns="http://www.w3.org/2000/svg">
<path d="M6 1H25.5L34 10.5V38L19 39.5L6 38V1Z" fill="#E30613"/>
<path d="M34.7559 8.5775L26.4225 0.244141C26.2663 0.0878906 26.0547 0 25.8333 0H8.33328C6.49492 0 5 1.49492 5 3.33336V36.6667C5 38.5051 6.49492 40 8.33336 40H31.6667C33.5051 40 35 38.5051 35 36.6666V9.16664C35 8.94531 34.9121 8.73375 34.7559 8.5775ZM26.6666 2.84508L32.1549 8.33336H28.3333C27.4145 8.33336 26.6666 7.58547 26.6666 6.66672V2.84508ZM33.3334 36.6666C33.3334 37.5854 32.5855 38.3333 31.6667 38.3333H8.33336C7.41461 38.3333 6.66672 37.5854 6.66672 36.6666V3.33336C6.66672 2.41461 7.41461 1.66672 8.33336 1.66672H25V6.66672C25 8.50508 26.4949 10 28.3334 10H33.3334V36.6666Z" fill="white"/>
<path d="M24.2488 24.4639C23.4773 23.8568 22.7441 23.2326 22.2559 22.7443C21.6211 22.1096 21.0555 21.4943 20.564 20.9084C21.3306 18.5394 21.6667 17.3179 21.6667 16.6669C21.6667 13.9008 20.6673 13.3335 19.1667 13.3335C18.0266 13.3335 16.6667 13.9259 16.6667 16.7466C16.6667 17.9901 17.3479 19.4997 18.698 21.2543C18.3676 22.2626 17.9794 23.4255 17.5432 24.7365C17.3332 25.3656 17.1054 25.9482 16.8645 26.487C16.6684 26.5741 16.4779 26.6628 16.294 26.7547C15.6316 27.086 15.0025 27.3838 14.419 27.6605C11.7578 28.9203 10 29.7536 10 31.3991C10 32.5938 11.298 33.3335 12.5 33.3335C14.0495 33.3335 16.3891 31.2639 18.0981 27.7776C19.8722 27.0778 22.0777 26.5593 23.8184 26.2347C25.2132 27.3072 26.7537 28.3335 27.5 28.3335C29.5662 28.3335 30 27.1388 30 26.137C30 24.1668 27.749 24.1668 26.6666 24.1668C26.3305 24.1668 25.4289 24.2661 24.2488 24.4639ZM12.5 31.6668C12.0239 31.6668 11.7016 31.4422 11.6666 31.3991C11.6666 30.8082 13.4285 29.9733 15.1327 29.1661C15.2409 29.1148 15.3508 29.0635 15.4623 29.0106C14.2106 30.8254 12.9728 31.6668 12.5 31.6668ZM18.3334 16.7466C18.3334 15.0002 18.8754 15.0002 19.1667 15.0002C19.7559 15.0002 20.0001 15.0002 20.0001 16.6669C20.0001 17.0184 19.7657 17.8973 19.3368 19.2694C18.6824 18.2619 18.3334 17.3985 18.3334 16.7466ZM18.9722 25.7033C19.0243 25.5585 19.0748 25.412 19.1236 25.2639C19.4328 24.3361 19.7112 23.5028 19.9594 22.7525C20.3052 23.1333 20.678 23.5232 21.0776 23.9227C21.2338 24.079 21.6212 24.4305 22.1372 24.8707C21.11 25.0946 20.0171 25.3721 18.9722 25.7033ZM28.3334 26.1371C28.3334 26.5115 28.3334 26.6668 27.5602 26.6718C27.3332 26.6229 26.8083 26.3137 26.1605 25.8726C26.3956 25.8466 26.569 25.8336 26.6666 25.8336C27.898 25.8336 28.2471 25.954 28.3334 26.1371Z" fill="white"/>
</svg>
