<svg fill="none" xmlns="http://www.w3.org/2000/svg" viewBox="0 0 26 26"><path d="M22.192 3.808A12.915 12.915 0 0013 0a12.915 12.915 0 00-9.192 3.808A12.915 12.915 0 000 13c0 3.472 1.352 6.737 3.808 9.192A12.915 12.915 0 0013 26c3.472 0 6.737-1.352 9.192-3.808A12.915 12.915 0 0026 13c0-3.472-1.352-6.737-3.808-9.192zM13 24.477C6.672 24.477 1.523 19.328 1.523 13S6.672 1.523 13 1.523 24.477 6.672 24.477 13 19.328 24.477 13 24.477z" fill="#fff"/><path d="M19.195 8.829a.762.762 0 00-1.077 0l-6.726 6.726-3.54-3.54a.762.762 0 00-1.078 1.077l4.08 4.08a.76.76 0 001.076 0l7.265-7.266a.762.762 0 000-1.077z" fill="#fff"/></svg>