<svg width="0" height="0" class="hidden">
	<symbol viewBox="0 0 231 231" xmlns="http://www.w3.org/2000/svg" shape-rendering="geometricPrecision" fill-rule="evenodd" clip-rule="evenodd" id="close">
		<path d="M202 0L0 202l28 28L230 28 202 0z"/><path d="M28 0l202 202-28 28L0 28 28 0z"/>
	</symbol>

	<symbol xmlns="http://www.w3.org/2000/svg" viewBox="0 0 8 16" id="facebook"><path fill-rule="evenodd" clip-rule="evenodd" d="M5.2 16V8.69h2.35l.36-2.84H5.2V4.04c0-.83.2-1.39 1.34-1.39H8V.11C7.75.06 6.89 0 5.89 0 3.8 0 2.37 1.32 2.37 3.75v2.1H0V8.7h2.37V16H5.2z"/></symbol>

	<symbol xmlns="http://www.w3.org/2000/svg" viewBox="0 0 18 10" id="vk"><path fill-rule="evenodd" clip-rule="evenodd" d="M15.34 6.33l1.11.99c.25.24.68.6 1.08 1.12.64.84.7 1.41-.28 1.49-1.41-.05-3.37.14-3.73-.31C12.07 8.19 11 6.7 10.56 8.59c-.06.33-.07.66-.1.83 0 .3-.03.47-.73.55H9.7c-.29.04-.62.04-.97.01-1.38 0-2.72-.5-3.77-1.4a9.9 9.9 0 01-1.4-1.47c-.7-.86-1.32-1.79-1.86-2.76A62.18 62.18 0 01.1 1.24C.08 1.2.08 1.17.09 1.15-.08.7-.03.45.44.5c2.4-.02 3.17-.4 3.48.6 1.8 4.03 3.42 5.63 3.1.86C6.81.71 6.43.82 6.31.8c-1.09-.01.33-.8.5-.74 1.46 0 3.67-.4 3.73.86 0 1.63-.81 7.25 2.53 1.23l.38-.86c.24-.53.26-.88.82-.8h2.84c.08.04 1.38-.26.57 1.17-1.14 2.4-3.57 3.55-2.35 4.67h.01z"/></symbol>

	<symbol xmlns="http://www.w3.org/2000/svg" viewBox="0 0 16 13" id="twitter"><path fill-rule="evenodd" clip-rule="evenodd" d="M15.56.24a6.6 6.6 0 01-2.09.8 3.27 3.27 0 00-5.58 2.99A9.32 9.32 0 011.11.6a3.27 3.27 0 001.02 4.38 3.28 3.28 0 01-1.49-.41v.04a3.29 3.29 0 002.64 3.22c-.49.13-1 .15-1.49.06a3.29 3.29 0 003.07 2.28A6.59 6.59 0 010 11.53 9.3 9.3 0 005.03 13c6.04 0 9.34-5 9.34-9.34l-.01-.43A6.6 6.6 0 0016 1.53c-.59.27-1.22.45-1.88.53A3.3 3.3 0 0015.55.24h.01z"/></symbol>

	<symbol viewBox="0 0 24 24" xmlns="http://www.w3.org/2000/svg" id="telegram"><path d="M9.42 15.18l-.4 5.58c.57 0 .81-.24 1.1-.53l2.67-2.55 5.52 4.04c1.01.57 1.73.27 2-.93l3.62-16.97c.32-1.5-.54-2.08-1.53-1.71L1.11 10.26C-.34 10.82-.32 11.63.87 12l5.44 1.7 12.64-7.92c.6-.4 1.14-.18.7.22z"/></symbol>

	<symbol xmlns="http://www.w3.org/2000/svg" viewBox="0 0 5 9" id="arrow-right"><path fill-rule="evenodd" clip-rule="evenodd" d="M.5.5c.3-.3.8-.2 1 0l3 3.5c.3.3.3.7 0 1l-3 3.5a.7.7 0 01-1-1l2.6-3-2.6-3a.7.7 0 010-1z"/></symbol>

	<symbol xmlns="http://www.w3.org/2000/svg" viewBox="0 0 30 30" id="search"><path d="M29.63 27.87l-8.53-8.54A11.89 11.89 0 0011.87 0 11.89 11.89 0 000 11.87a11.89 11.89 0 0019.33 9.23l8.54 8.53a1.25 1.25 0 001.76 0c.5-.49.5-1.28 0-1.76zm-17.76-6.62a9.38 9.38 0 010-18.75 9.38 9.38 0 010 18.75z"/></symbol>

	<symbol xmlns="http://www.w3.org/2000/svg" viewBox="0 0 22 8" id="pdf-text"><path d="M1 .1h3c.8 0 1.5.3 2 .8s.7 1.2.7 2c0 .9-.2 1.6-.7 2-.5.6-1.2.8-2 .8H2.5v2.1c0 .1 0 .2-.2.2H1c-.1 0-.2 0-.2-.2V.3C.8.2.8.1 1 .1zm1.6 4h1C4.6 4 5 3.7 5 2.9c0-.8-.4-1.1-1.2-1.1H2.6V4zM11.2 8H8.5c-.2 0-.2 0-.2-.2V.3c0-.1 0-.2.2-.2h2.7c1 0 1.7.3 2.2.8.6.4.9 1.2.9 2.3V5c0 2-1 3-3.1 3zM10 1.8v4.5h1.2c.8 0 1.3-.4 1.3-1.3V3.1c0-.9-.5-1.3-1.3-1.3H10zM21.3.3v1.3l-.2.2h-3.2v1.7h2.7c.1 0 .2 0 .2.2v1.2c0 .1 0 .2-.2.2h-2.7v2.7l-.2.2h-1.4c-.1 0-.2 0-.2-.2V.3c0-.1 0-.2.2-.2h4.8l.2.2z"/></symbol>

	<symbol xmlns="http://www.w3.org/2000/svg" viewBox="0 0 9 13" id="download"><path d="M5.4 7.3l.7-.7 1.5-1.4c.3-.4.8-.4 1.2 0 .3.3.3.8 0 1.1l-.1.1-3.1 3.1c-.7.6-1.5.6-2.1 0L.3 6.4C0 6-.1 5.7 0 5.4c.1-.3.4-.5.8-.5l.6.3 2 2 .1.1v-.2V1c0-.6.5-1 1-.9.5 0 .7.4.7.9v6.4zM4.5 13H.9c-.6 0-1-.4-.9-1 0-.3.3-.6.7-.6H1a6048 6048 0 017.4 0c.4 0 .6.4.6.8s-.3.7-.7.8a2 2 0 01-.3 0H4.5z"/></symbol>

	<symbol xmlns="http://www.w3.org/2000/svg" viewBox="0 0 18 18" id="instagram"><path d="M9 0C5.3 0 1.8-.3.5 3.1-.1 4.5 0 6.3 0 9c0 2.3 0 4.4.5 5.8C1.8 18.3 5.3 18 9 18c3.5 0 7.2.4 8.5-3 .6-1.5.5-3.3.5-6 0-3.4.2-5.7-1.5-7.4C14.8-.2 12.5 0 9 0zm-.8 1.6c7.7 0 8.7-.8 8.1 11-.2 4.2-3.4 3.7-7.3 3.7-7.2 0-7.4-.2-7.4-7.3 0-7.3.6-7.4 6.6-7.4zm5.6 1.5a1 1 0 100 2.2 1 1 0 000-2.2zM9 4.4a4.6 4.6 0 100 9.2 4.6 4.6 0 000-9.2zM9 6c4 0 4 6 0 6S5 6 9 6z"/></symbol>

	<symbol xmlns="http://www.w3.org/2000/svg" viewBox="0 0 20 20" id="whatsapp"><path d="M17 2.9a10 10 0 00-14 0 9.8 9.8 0 00-3 7c0 1.6.4 3.2 1.2 4.7L0 20l5.5-1.2c1.4.7 3 1 4.5 1A10 10 0 0020 10c0-2.6-1-5.1-3-7zm-7 15.4c-1.4 0-2.8-.4-4-1l-.3-.2-3.6.8.8-3.6-.2-.2a8.3 8.3 0 01-1.1-4.2A8.4 8.4 0 0115.9 4a8.3 8.3 0 01-6 14.3z"/><path d="M7.3 5.5h-.5l-.6.3c-.2.3-.8.8-.8 2 0 1 .8 2.1 1 2.3 0 .1 1.5 2.5 3.9 3.4 1.9.8 2.3.6 2.7.6.4 0 1.4-.6 1.5-1l.2-1.2-.5-.2-1.5-.8c-.2 0-.4-.1-.5.1l-.8 1H11c-.2-.1-1-.4-1.8-1.1a7 7 0 01-1.3-1.7c-.1-.2 0-.3.1-.4l.4-.4.2-.4v-.4L7.8 6c-.2-.3-.4-.4-.5-.4z"/></symbol>

	<symbol xmlns="http://www.w3.org/2000/svg" viewBox="0 0 40 30" id="envelope"><path d="M36.67 0H3.33A3.34 3.34 0 000 3.33v23.34C0 28.5 1.5 30 3.33 30h33.34C38.5 30 40 28.5 40 26.67V3.33C40 1.5 38.5 0 36.67 0zM3.33 1.67h33.34c.12 0 .23.04.34.07a4480.9 4480.9 0 01-15.8 14.4c-.26.25-.69.53-1.21.53s-.95-.28-1.21-.52A4516.71 4516.71 0 012.99 1.74c.11-.03.22-.07.34-.07zm-1.66 25V3.33c0-.16.05-.3.09-.46l13.21 12.07C10.66 18.64 3.98 24.98 1.75 27.1c-.03-.14-.08-.28-.08-.43zm35 1.66H3.33c-.13 0-.25-.04-.37-.07 2.3-2.2 9.02-8.56 13.26-12.2l1.45 1.33c.7.62 1.5.94 2.33.94.84 0 1.64-.32 2.32-.94l1.46-1.32c4.24 3.63 10.96 10 13.26 12.19-.12.03-.24.07-.37.07zm1.66-1.66c0 .15-.05.29-.08.43a426.7 426.7 0 00-13.22-12.16L38.24 2.87c.04.15.1.3.1.46v23.34z"/></symbol>

	<symbol xmlns="http://www.w3.org/2000/svg" viewBox="0 0 23 9" id="long-arrow-right"><path d="M.72 3.77h19.81L18 1.24a.73.73 0 010-1.03.72.72 0 011.02 0L22.79 4c.28.28.28.74 0 1.02L19.02 8.8a.72.72 0 01-1.02 0 .73.73 0 010-1.03l2.53-2.53H.73A.72.72 0 010 4.5c0-.4.32-.73.72-.73z"/></symbol>

	<symbol xmlns="http://www.w3.org/2000/svg" viewBox="0 0 24 30" id="file-download"><path d="M16.32.23A.74.74 0 0015.8 0H3.98A3.98 3.98 0 000 3.93v22.14C0 28.22 1.8 30 3.98 30h16.04A3.98 3.98 0 0024 26.07V8.49a.78.78 0 00-.21-.5L16.32.23zm.22 2.33l5 5.2h-3.25c-.97 0-1.75-.77-1.75-1.73V2.56zm3.48 26H3.98a2.52 2.52 0 01-2.52-2.5V3.94a2.52 2.52 0 012.52-2.48h11.1v4.58a3.19 3.19 0 003.2 3.17h4.26v16.87a2.52 2.52 0 01-2.52 2.48z"/><path d="M18.02 23.55H5.98c-.4 0-.73.33-.73.73 0 .4.33.72.73.72h12.05c.4 0 .73-.33.73-.72 0-.4-.33-.73-.74-.73zM11.47 20.95c.13.14.33.23.53.23s.4-.09.53-.23l4.3-4.56a.72.72 0 00-.04-1.02.73.73 0 00-1.04.04l-3.02 3.2v-7.9a.73.73 0 00-1.46 0v7.9l-3.02-3.2a.73.73 0 00-1.03-.04.72.72 0 00-.03 1.02l4.28 4.56z"/></symbol>
</svg>