<svg width="145" height="57" viewBox="0 0 145 57" fill="none" xmlns="http://www.w3.org/2000/svg">
<path d="M134.276 19.8749C124.551 11.6349 100.701 5.80688 72.799 5.80688C44.897 5.80688 21.048 11.6349 11.324 19.8749H134.276Z" fill="white"/>
<path d="M6.64301 28.117C6.64301 30.659 7.92101 33.099 10.244 35.375H135.358C137.68 33.099 138.959 30.659 138.959 28.117C138.959 25.205 137.287 22.426 134.277 19.875H11.325C8.31501 22.425 6.64301 25.205 6.64301 28.117Z" fill="#124271"/>
<path d="M72.8 50.428C101.799 50.428 126.424 44.132 135.358 35.375H10.243C19.177 44.132 43.801 50.428 72.8 50.428Z" fill="#E30613"/>
<path fill-rule="evenodd" clip-rule="evenodd" d="M55.03 18.0519V25.5359H66.447V18.0519C66.447 16.9879 66.69 16.1859 67.17 15.6509C67.65 15.1159 68.283 14.8489 69.067 14.8489C69.857 14.8489 70.502 15.1099 70.994 15.6389C71.486 16.1679 71.736 16.9769 71.736 18.0529V38.6259C71.736 39.7019 71.486 40.5099 70.988 41.0449C70.49 41.5799 69.845 41.8479 69.067 41.8479C68.27 41.8479 67.632 41.5799 67.158 41.0389C66.683 40.4979 66.447 39.6959 66.447 38.6259V29.8469H55.03V38.6259C55.03 39.7079 54.78 40.5099 54.282 41.0449C53.784 41.5799 53.14 41.8479 52.361 41.8479C51.564 41.8479 50.926 41.5799 50.452 41.0389C49.978 40.4979 49.741 39.6959 49.741 38.6259V18.0519C49.741 16.9879 49.978 16.1859 50.446 15.6509C50.914 15.1159 51.552 14.8489 52.361 14.8489C53.151 14.8489 53.796 15.1099 54.288 15.6389C54.78 16.1679 55.03 16.9769 55.03 18.0519ZM82.599 18.0519V37.0559H93.323C94.175 37.0559 94.831 37.2619 95.287 37.6809C95.75 38.0949 95.974 38.6179 95.974 39.2439C95.974 39.8889 95.75 40.4049 95.299 40.8059C94.85 41.2009 94.187 41.4029 93.323 41.4029H80.55C79.402 41.4029 78.569 41.1469 78.064 40.6359C77.559 40.1249 77.31 39.2979 77.31 38.1609V18.0509C77.31 16.9869 77.553 16.1849 78.034 15.6499C78.513 15.1149 79.146 14.8479 79.93 14.8479C80.72 14.8479 81.365 15.1089 81.857 15.6379C82.35 16.1679 82.599 16.9769 82.599 18.0519Z" fill="white"/>
<path d="M69.067 42.267C68.144 42.267 67.396 41.947 66.842 41.315C66.302 40.699 66.027 39.794 66.027 38.626V30.267H55.45V38.626C55.45 39.808 55.161 40.718 54.589 41.331C54.011 41.952 53.261 42.268 52.361 42.268C51.439 42.268 50.69 41.948 50.136 41.316C49.595 40.699 49.321 39.795 49.321 38.627V18.052C49.321 16.889 49.593 15.988 50.13 15.374C50.679 14.747 51.429 14.428 52.361 14.428C53.273 14.428 54.025 14.739 54.595 15.352C55.162 15.962 55.449 16.87 55.449 18.052V25.116H66.026V18.052C66.026 16.887 66.305 15.985 66.856 15.37C67.418 14.745 68.161 14.428 69.066 14.428C69.978 14.428 70.73 14.739 71.3 15.352C71.867 15.962 72.155 16.87 72.155 18.052V38.625C72.155 39.807 71.865 40.717 71.294 41.33C70.717 41.951 69.967 42.267 69.067 42.267ZM54.61 29.426H66.867V38.625C66.867 39.584 67.071 40.303 67.473 40.762C67.866 41.209 68.387 41.427 69.067 41.427C69.734 41.427 70.262 41.208 70.681 40.758C71.102 40.305 71.316 39.587 71.316 38.625V18.052C71.316 17.09 71.104 16.374 70.686 15.924C70.275 15.483 69.746 15.268 69.067 15.268C68.401 15.268 67.883 15.485 67.482 15.931C67.074 16.386 66.867 17.1 66.867 18.052V25.956H54.61V18.052C54.61 17.089 54.398 16.373 53.981 15.924C53.57 15.483 53.04 15.268 52.361 15.268C51.673 15.268 51.15 15.483 50.762 15.927C50.363 16.383 50.161 17.098 50.161 18.052V38.625C50.161 39.583 50.365 40.302 50.768 40.762C51.161 41.209 51.682 41.427 52.361 41.427C53.028 41.427 53.556 41.208 53.975 40.758C54.396 40.306 54.61 39.588 54.61 38.625V29.426ZM93.322 41.823H80.55C79.286 41.823 78.35 41.523 77.765 40.931C77.185 40.344 76.89 39.411 76.89 38.161V18.051C76.89 16.885 77.169 15.984 77.721 15.369C78.282 14.744 79.025 14.427 79.93 14.427C80.842 14.427 81.593 14.738 82.164 15.351C82.73 15.96 83.018 16.868 83.018 18.051V36.635H93.322C94.282 36.635 95.039 36.883 95.57 37.37C96.114 37.857 96.392 38.488 96.392 39.243C96.392 40.007 96.118 40.638 95.576 41.119C95.047 41.587 94.289 41.823 93.322 41.823ZM79.93 15.269C79.264 15.269 78.746 15.486 78.346 15.932C77.937 16.387 77.73 17.101 77.73 18.053V38.163C77.73 39.185 77.943 39.918 78.363 40.343C78.784 40.769 79.52 40.985 80.551 40.985H93.323C94.079 40.985 94.65 40.82 95.021 40.493C95.378 40.176 95.553 39.767 95.553 39.247C95.553 38.734 95.374 38.325 95.006 37.996C94.631 37.651 94.066 37.479 93.322 37.479H82.179V18.052C82.179 17.089 81.967 16.373 81.549 15.925C81.138 15.483 80.608 15.269 79.93 15.269Z" fill="#000015"/>
<path d="M89.123 12.073C89.68 12.073 90.223 12.216 90.753 12.501C91.283 12.787 91.696 13.195 91.993 13.728C92.288 14.259 92.436 14.814 92.436 15.391C92.436 15.962 92.291 16.512 91.999 17.039C91.708 17.566 91.299 17.976 90.773 18.267C90.247 18.559 89.697 18.704 89.123 18.704C88.549 18.704 87.999 18.559 87.473 18.267C86.948 17.976 86.537 17.566 86.245 17.039C85.951 16.512 85.806 15.962 85.806 15.391C85.806 14.814 85.954 14.259 86.251 13.728C86.549 13.196 86.962 12.788 87.493 12.501C88.022 12.216 88.566 12.073 89.123 12.073ZM89.123 12.622C88.657 12.622 88.204 12.742 87.763 12.98C87.323 13.219 86.977 13.56 86.728 14.003C86.479 14.447 86.355 14.909 86.355 15.39C86.355 15.868 86.477 16.326 86.722 16.763C86.966 17.201 87.308 17.543 87.747 17.787C88.186 18.032 88.645 18.154 89.123 18.154C89.601 18.154 90.06 18.032 90.499 17.787C90.938 17.542 91.279 17.201 91.522 16.763C91.765 16.325 91.887 15.867 91.887 15.39C91.887 14.91 91.763 14.448 91.515 14.003C91.268 13.56 90.922 13.218 90.481 12.98C90.038 12.742 89.586 12.622 89.123 12.622ZM87.669 17.223V13.655H88.895C89.314 13.655 89.617 13.688 89.804 13.754C89.992 13.819 90.141 13.935 90.253 14.099C90.363 14.263 90.419 14.437 90.419 14.622C90.419 14.883 90.326 15.11 90.141 15.303C89.954 15.496 89.708 15.605 89.4 15.628C89.526 15.681 89.628 15.744 89.704 15.817C89.848 15.958 90.023 16.194 90.231 16.524L90.666 17.223H89.963L89.647 16.661C89.398 16.219 89.198 15.942 89.045 15.83C88.94 15.748 88.785 15.707 88.584 15.707H88.245V17.223H87.669ZM88.244 15.215H88.942C89.276 15.215 89.505 15.165 89.626 15.066C89.748 14.966 89.809 14.835 89.809 14.671C89.809 14.566 89.78 14.471 89.721 14.388C89.662 14.304 89.581 14.242 89.477 14.201C89.373 14.16 89.181 14.14 88.9 14.14H88.245V15.215H88.244Z" fill="#000015"/>
<path d="M97.223 29.216C97.05 29.216 96.894 29.292 96.713 29.38C96.451 29.507 96.126 29.664 95.617 29.664C94.367 29.664 94.034 28.562 94.034 27.911C94.034 27.102 94.46 26.158 95.659 26.158C96.159 26.158 96.388 26.313 96.591 26.45C96.736 26.548 96.885 26.649 97.088 26.649C97.403 26.649 97.641 26.415 97.641 26.105C97.641 25.643 96.793 25.126 95.66 25.126C93.657 25.126 92.745 26.57 92.745 27.912C92.745 29.253 93.644 30.697 95.618 30.697C96.656 30.697 97.768 30.318 97.768 29.754C97.768 29.442 97.538 29.216 97.223 29.216Z" fill="white"/>
<path d="M102.957 25.125C102.611 25.125 102.443 25.296 102.244 25.537L99.651 28.648V25.704C99.651 25.363 99.396 25.125 99.031 25.125C98.667 25.125 98.412 25.363 98.412 25.704V30.081C98.412 30.442 98.653 30.695 98.998 30.695C99.345 30.695 99.513 30.524 99.712 30.283L102.305 27.172V30.116C102.305 30.457 102.56 30.695 102.924 30.695C103.289 30.695 103.544 30.457 103.544 30.116V25.74C103.544 25.378 103.303 25.125 102.957 25.125Z" fill="white"/>
<path d="M108.432 25.574C108.351 25.574 108.271 25.581 108.193 25.592C108.143 25.312 107.906 25.126 107.583 25.126C107.261 25.126 107.024 25.312 106.974 25.59C106.901 25.581 106.819 25.574 106.734 25.574C105.044 25.574 104.273 26.786 104.273 27.911C104.273 29.08 105.107 30.263 106.701 30.263C106.788 30.263 106.884 30.257 106.977 30.246C107.033 30.517 107.267 30.696 107.583 30.696C107.9 30.696 108.135 30.516 108.19 30.245C108.28 30.256 108.376 30.263 108.465 30.263C110.059 30.263 110.893 29.08 110.893 27.911C110.893 26.785 110.122 25.574 108.432 25.574ZM108.465 29.202C108.375 29.202 108.289 29.196 108.202 29.183V26.65C108.272 26.639 108.348 26.634 108.431 26.634C109.294 26.634 109.601 27.322 109.601 27.911C109.602 28.391 109.362 29.202 108.465 29.202ZM106.732 26.634C106.816 26.634 106.892 26.639 106.962 26.65V29.183C106.875 29.196 106.788 29.202 106.698 29.202C105.801 29.202 105.561 28.391 105.561 27.911C105.562 27.322 105.869 26.634 106.732 26.634Z" fill="white"/>
<path d="M114.31 25.125C112.424 25.125 111.437 26.526 111.437 27.911C111.437 29.295 112.424 30.696 114.31 30.696C116.196 30.696 117.183 29.295 117.183 27.911C117.184 26.527 116.196 25.125 114.31 25.125ZM114.31 29.664C113.142 29.664 112.726 28.759 112.726 27.911C112.726 27.063 113.142 26.158 114.31 26.158C115.476 26.158 115.892 27.064 115.892 27.911C115.893 28.759 115.477 29.664 114.31 29.664Z" fill="white"/>
<path d="M122.455 25.125C122.079 25.125 121.836 25.369 121.836 25.746V27.387H119.183V25.746C119.183 25.374 118.934 25.125 118.563 25.125C118.187 25.125 117.944 25.369 117.944 25.746V30.075C117.944 30.452 118.187 30.696 118.563 30.696C118.934 30.696 119.183 30.446 119.183 30.075V28.42H121.836V30.075C121.836 30.452 122.079 30.696 122.455 30.696C122.832 30.696 123.075 30.452 123.075 30.075V25.746C123.075 25.369 122.832 25.125 122.455 25.125Z" fill="white"/>
<path d="M126.129 27.206H125.337V25.705C125.337 25.364 125.082 25.126 124.717 25.126C124.353 25.126 124.098 25.364 124.098 25.705V30.069C124.098 30.361 124.297 30.655 124.742 30.655H126.163C127.484 30.655 128.372 29.947 128.372 28.892C128.372 28.077 127.783 27.206 126.129 27.206ZM127.133 28.892C127.133 29.4 126.614 29.58 126.129 29.58H125.337V28.28H126.163C126.77 28.28 127.133 28.508 127.133 28.892Z" fill="white"/>
<path d="M129.299 25.125C128.935 25.125 128.68 25.363 128.68 25.704V30.117C128.68 30.458 128.935 30.696 129.299 30.696C129.664 30.696 129.919 30.458 129.919 30.117V25.704C129.919 25.364 129.664 25.125 129.299 25.125Z" fill="white"/>
<path d="M18.36 25.168H15.384C15.018 25.168 14.772 25.384 14.772 25.705C14.772 26.026 15.018 26.242 15.384 26.242H16.252V30.117C16.252 30.458 16.507 30.696 16.872 30.696C17.237 30.696 17.492 30.458 17.492 30.117V26.242H18.36C18.726 26.242 18.972 26.026 18.972 25.705C18.972 25.384 18.726 25.168 18.36 25.168Z" fill="white"/>
<path d="M21.875 25.168H20.412C19.966 25.168 19.767 25.462 19.767 25.754V30.117C19.767 30.458 20.022 30.696 20.387 30.696C20.752 30.696 21.007 30.458 21.007 30.117V28.791H21.901C23.116 28.791 24.068 27.998 24.068 26.986C24.068 25.934 23.146 25.168 21.875 25.168ZM22.828 26.987C22.828 27.435 22.417 27.76 21.851 27.76H21.008V26.201H21.817C22.755 26.201 22.828 26.803 22.828 26.987Z" fill="white"/>
<path d="M27.606 25.649C27.546 25.52 27.363 25.126 26.85 25.126C26.337 25.126 26.154 25.519 26.092 25.652L24.217 29.818C24.161 29.949 24.111 30.076 24.111 30.188C24.111 30.483 24.364 30.697 24.714 30.697C24.989 30.697 25.193 30.566 25.305 30.314L25.627 29.569H28.072L28.395 30.317C28.506 30.566 28.71 30.697 28.985 30.697C29.335 30.697 29.589 30.483 29.589 30.188C29.589 30.076 29.539 29.949 29.466 29.777L27.606 25.649ZM27.632 28.538H26.069L26.851 26.708L27.632 28.538Z" fill="white"/>
<path d="M34.935 25.168H31.042C30.666 25.168 30.422 25.412 30.422 25.789V30.076C30.422 30.453 30.665 30.697 31.042 30.697C31.418 30.697 31.662 30.453 31.662 30.076V26.201H34.315V30.076C34.315 30.453 34.558 30.697 34.935 30.697C35.312 30.697 35.555 30.453 35.555 30.076V25.789C35.555 25.412 35.312 25.168 34.935 25.168Z" fill="white"/>
<path d="M42.031 25.126C41.666 25.126 41.411 25.364 41.411 25.705V30.118C41.411 30.459 41.666 30.697 42.031 30.697C42.396 30.697 42.651 30.459 42.651 30.118V25.705C42.651 25.365 42.396 25.126 42.031 25.126Z" fill="white"/>
<path d="M38.861 27.206H38.069V25.705C38.069 25.364 37.814 25.126 37.449 25.126C37.084 25.126 36.829 25.364 36.829 25.705V30.069C36.829 30.361 37.028 30.655 37.474 30.655H38.895C40.216 30.655 41.104 29.947 41.104 28.892C41.104 28.078 40.515 27.206 38.861 27.206ZM39.864 28.893C39.864 29.401 39.346 29.581 38.861 29.581H38.069V28.281H38.895C39.502 28.281 39.864 28.509 39.864 28.893Z" fill="white"/>
<path d="M72.886 0H72.046V3.647H72.886V0Z" fill="#000015"/>
<path d="M72.764 52.4031H71.924V56.0501H72.764V52.4031Z" fill="#000015"/>
<path d="M144.444 27.7881H140.798V28.6281H144.444V27.7881Z" fill="#000015"/>
<path d="M3.769 27.667H0V28.507H3.769V27.667Z" fill="#000015"/>
<path d="M72.499 51.098C35.788 51.098 5.922 40.901 5.922 28.367C5.922 15.834 35.788 5.63696 72.499 5.63696C109.21 5.63696 139.077 15.834 139.077 28.367C139.077 40.9 109.211 51.098 72.499 51.098ZM72.499 6.47696C36.252 6.47696 6.762 16.297 6.762 28.367C6.762 40.438 36.252 50.258 72.499 50.258C108.747 50.258 138.237 40.438 138.237 28.367C138.237 16.296 108.747 6.47696 72.499 6.47696Z" fill="#000015"/>
</svg>
