<svg width="150" height="50" viewBox="0 0 150 50" fill="none" xmlns="http://www.w3.org/2000/svg">
<path fill-rule="evenodd" clip-rule="evenodd" d="M74.9995 50C116.42 50 150 38.8055 150 24.9995C150 11.1928 116.42 0 74.9995 0C33.579 0 0 11.1928 0 24.9995C0 38.8055 33.579 50 74.9995 50Z" fill="#E30613"/>
<path fill-rule="evenodd" clip-rule="evenodd" d="M100.969 34.2477H88.0963V8.784C85.6232 8.18302 83.1503 8.18302 80.6772 8.784V41.6666H100.969C101.582 39.1937 101.582 36.7208 100.969 34.2477Z" fill="white"/>
<path fill-rule="evenodd" clip-rule="evenodd" d="M67.569 8.784V21.1351H55.9901V8.784C53.517 8.18302 51.0441 8.18302 48.571 8.784V41.2068C51.0441 41.8199 53.517 41.8199 55.9901 41.2068V28.5538H67.569V41.2068C70.0421 41.8199 72.515 41.8199 74.9881 41.2068V8.784C72.515 8.18321 70.0421 8.18321 67.569 8.784Z" fill="white"/>
</svg>
